<svg width="155" height="53" viewBox="0 0 155 53" fill="none" xmlns="http://www.w3.org/2000/svg">
<g filter="url(#filter0_d_273_4326)">
<path d="M54.2136 32.8061H63.103C67.7762 32.8061 70.2652 30.3679 70.2652 27.056C70.2652 23.9778 68.0607 22.1186 65.6936 22.0069V21.8037C67.8575 21.316 69.4525 19.782 69.4525 17.3336C69.4525 14.2147 67.1362 12 62.5442 12H54.2136V32.8061ZM58.6126 29.2098V23.6831H62.3004C64.4135 23.6831 65.7241 24.9022 65.7241 26.6192C65.7241 28.1837 64.6573 29.2098 62.1988 29.2098H58.6126ZM58.6126 20.7065V15.5557H61.955C63.9055 15.5557 65.0129 16.5615 65.0129 18.0651C65.0129 19.7109 63.6719 20.7065 61.8737 20.7065H58.6126Z" fill="#8CB7F5"/>
<path d="M72.5182 32.8061H76.846V23.9778C76.846 22.0577 78.248 20.737 80.1579 20.737C80.7573 20.737 81.5802 20.8385 81.9866 20.9706V17.1304C81.6005 17.039 81.0621 16.978 80.6253 16.978C78.8779 16.978 77.4454 17.994 76.8765 19.9242H76.7139V17.2015H72.5182V32.8061Z" fill="#8CB7F5"/>
<path d="M87.6988 33.1008C90.0049 33.1008 91.4983 32.095 92.2603 30.6422H92.3822V32.8061H96.4865V22.2812C96.4865 18.5629 93.3371 16.9984 89.8627 16.9984C86.1241 16.9984 83.6655 18.7864 83.0661 21.631L87.0689 21.9561C87.3635 20.9198 88.288 20.1579 89.8424 20.1579C91.3155 20.1579 92.1587 20.8995 92.1587 22.1796V22.2405C92.1587 23.2463 91.092 23.3784 88.3794 23.6425C85.291 23.927 82.5175 24.9632 82.5175 28.4478C82.5175 31.5362 84.7221 33.1008 87.6988 33.1008ZM88.9382 30.1139C87.6073 30.1139 86.6524 29.4942 86.6524 28.3056C86.6524 27.0865 87.6581 26.4871 89.182 26.2737C90.1268 26.1417 91.671 25.9182 92.1891 25.5728V27.2287C92.1891 28.8644 90.838 30.1139 88.9382 30.1139Z" fill="#8CB7F5"/>
<path d="M103.644 23.7847C103.654 21.7732 104.853 20.5947 106.6 20.5947C108.337 20.5947 109.384 21.7326 109.374 23.6425V32.8061H113.701V22.8704C113.701 19.2334 111.568 16.9984 108.317 16.9984C106.001 16.9984 104.324 18.1362 103.624 19.9547H103.441V17.2015H99.316V32.8061H103.644V23.7847Z" fill="#8CB7F5"/>
<path d="M122.334 33.0601C124.854 33.0601 126.164 31.6074 126.764 30.307H126.947V32.8061H131.214V12H126.896V19.8226H126.764C126.185 18.5527 124.935 16.9984 122.324 16.9984C118.901 16.9984 116.005 19.6601 116.005 25.0242C116.005 30.246 118.779 33.0601 122.334 33.0601ZM123.706 29.6161C121.583 29.6161 120.424 27.7265 120.424 25.0038C120.424 22.3015 121.562 20.4423 123.706 20.4423C125.809 20.4423 126.987 22.2202 126.987 25.0038C126.987 27.7875 125.789 29.6161 123.706 29.6161Z" fill="#8CB7F5"/>
<g opacity="0.8">
<path fill-rule="evenodd" clip-rule="evenodd" d="M18.4674 2.91309H41.1848C44.9487 2.91309 48 6.28555 48 10.4457V35.5544C48 39.7145 44.9487 43.087 41.1848 43.087H18.4674C14.7034 43.087 11.6522 39.7145 11.6522 35.5544L11.6522 10.4457C11.6522 6.28555 14.7034 2.91309 18.4674 2.91309Z" fill="#0D6EFD" fill-opacity="0.2"/>
<path fill-rule="evenodd" clip-rule="evenodd" d="M12.1304 2.91309H36.0435C40.0055 2.91309 43.2174 6.28555 43.2174 10.4457V35.5544C43.2174 39.7145 40.0055 43.087 36.0435 43.087H12.1304C8.1684 43.087 4.95653 39.7145 4.95653 35.5544L4.95653 10.4457C4.95653 6.28555 8.1684 2.91309 12.1304 2.91309Z" fill="#0D6EFD"/>
<g opacity="0.7" filter="url(#filter1_d_273_4326)">
<path opacity="0.3" fill-rule="evenodd" clip-rule="evenodd" d="M19.2902 19.3562H18.3097C18.2591 19.3562 18.1842 19.4265 18.1813 19.473L17.4589 31.1476L30.9548 31.1451L30.2253 19.473C30.2225 19.4283 30.1457 19.3562 30.0969 19.3562H29.1164V21.3214C29.1164 21.8641 28.6765 22.3041 28.1338 22.3041C27.5911 22.3041 27.1512 21.8641 27.1512 21.3214V19.3562H21.2554V21.3214C21.2554 21.8641 20.8155 22.3041 20.2728 22.3041C19.7301 22.3041 19.2902 21.8641 19.2902 21.3214V19.3562Z" fill="white"/>
<path fill-rule="evenodd" clip-rule="evenodd" d="M24.2033 12.4783C26.9153 12.4783 29.1164 14.6796 29.1164 17.3891L30.0969 17.3914C31.1835 17.3914 32.1192 18.2704 32.1867 19.3508L32.9244 31.1539C32.9921 32.2361 32.1698 33.1133 31.0865 33.1133H17.3201C16.2374 33.1133 15.4146 32.2344 15.4821 31.1539L16.2198 19.3508C16.2875 18.2686 17.2213 17.3914 18.3096 17.3914H19.2902C19.2902 14.6781 21.493 12.4783 24.2033 12.4783ZM27.1511 17.3915C27.1511 15.765 25.8299 14.4436 24.2033 14.4436C22.5778 14.4436 21.2554 15.7642 21.2554 17.3892L27.1511 17.3915ZM19.2902 19.3566H18.3096C18.2591 19.3566 18.1842 19.4269 18.1813 19.4733L17.4589 31.148L30.9548 31.1455L30.2253 19.4733C30.2225 19.4286 30.1457 19.3566 30.0969 19.3566H29.1164V21.3218C29.1164 21.8645 28.6765 22.3044 28.1338 22.3044C27.5911 22.3044 27.1512 21.8645 27.1512 21.3218V19.3566H21.2554V21.3218C21.2554 21.8645 20.8155 22.3044 20.2728 22.3044C19.7301 22.3044 19.2902 21.8645 19.2902 21.3218V19.3566Z" fill="white"/>
</g>
</g>
</g>
<defs>
<filter id="filter0_d_273_4326" x="0" y="0" width="159" height="54" filterUnits="userSpaceOnUse" color-interpolation-filters="sRGB">
<feFlood flood-opacity="0" result="BackgroundImageFix"/>
<feColorMatrix in="SourceAlpha" type="matrix" values="0 0 0 0 0 0 0 0 0 0 0 0 0 0 0 0 0 0 127 0" result="hardAlpha"/>
<feOffset dy="4"/>
<feGaussianBlur stdDeviation="2"/>
<feComposite in2="hardAlpha" operator="out"/>
<feColorMatrix type="matrix" values="0 0 0 0 0 0 0 0 0 0 0 0 0 0 0 0 0 0 0.25 0"/>
<feBlend mode="normal" in2="BackgroundImageFix" result="effect1_dropShadow_273_4326"/>
<feBlend mode="normal" in="SourceGraphic" in2="effect1_dropShadow_273_4326" result="shape"/>
</filter>
<filter id="filter1_d_273_4326" x="11.4783" y="12.4783" width="25.45" height="28.635" filterUnits="userSpaceOnUse" color-interpolation-filters="sRGB">
<feFlood flood-opacity="0" result="BackgroundImageFix"/>
<feColorMatrix in="SourceAlpha" type="matrix" values="0 0 0 0 0 0 0 0 0 0 0 0 0 0 0 0 0 0 127 0" result="hardAlpha"/>
<feOffset dy="4"/>
<feGaussianBlur stdDeviation="2"/>
<feComposite in2="hardAlpha" operator="out"/>
<feColorMatrix type="matrix" values="0 0 0 0 0 0 0 0 0 0 0 0 0 0 0 0 0 0 0.25 0"/>
<feBlend mode="normal" in2="BackgroundImageFix" result="effect1_dropShadow_273_4326"/>
<feBlend mode="normal" in="SourceGraphic" in2="effect1_dropShadow_273_4326" result="shape"/>
</filter>
</defs>
</svg>
